<svg xmlns="http://www.w3.org/2000/svg" width="512" height="512" viewBox="0 0 48 48"><mask id="ipSAllApplication0"><path fill="#ffffff" stroke="#ffffff" stroke-linejoin="round" stroke-width="4" d="M18 6H8a2 2 0 0 0-2 2v10a2 2 0 0 0 2 2h10a2 2 0 0 0 2-2V8a2 2 0 0 0-2-2Zm0 22H8a2 2 0 0 0-2 2v10a2 2 0 0 0 2 2h10a2 2 0 0 0 2-2V30a2 2 0 0 0-2-2ZM40 6H30a2 2 0 0 0-2 2v10a2 2 0 0 0 2 2h10a2 2 0 0 0 2-2V8a2 2 0 0 0-2-2Zm0 22H30a2 2 0 0 0-2 2v10a2 2 0 0 0 2 2h10a2 2 0 0 0 2-2V30a2 2 0 0 0-2-2Z"/></mask><path fill="#ffffff" d="M0 0h48v48H0z" mask="url(#ipSAllApplication0)"/></svg>