<!DOCTYPE svg PUBLIC "-//W3C//DTD SVG 1.1//EN" "http://www.w3.org/Graphics/SVG/1.1/DTD/svg11.dtd">
<!-- Uploaded to: SVG Repo, www.svgrepo.com, Transformed by: SVG Repo Mixer Tools -->
<svg fill="#D7DEDF" height="800px" width="800px" version="1.1" id="Layer_1" xmlns="http://www.w3.org/2000/svg" xmlns:xlink="http://www.w3.org/1999/xlink" viewBox="0 0 512 512" xml:space="preserve" stroke="#D7DEDF">
<g id="SVGRepo_bgCarrier" stroke-width="0"/>
<g id="SVGRepo_tracerCarrier" stroke-linecap="round" stroke-linejoin="round"/>
<g id="SVGRepo_iconCarrier"> <g> <g> <path d="M381.571,43.46c-80.668-63.575-197.766-56.407-269.466,14.993c-86.269,85.91-77.874,234.808,26.476,308.758v18.43 c0,3.291,2.669,5.96,5.96,5.96h87.022c3.291,0,5.96-2.669,5.96-5.96v-47.69c0-1.217-0.372-2.404-1.067-3.403L166.72,234.298 c-5.64-8.107-3.639-19.251,4.468-24.889c8.11-5.641,19.25-3.638,24.889,4.468l54.435,78.252c2.371,3.409,7.415,3.409,9.786,0 l54.435-78.252c5.637-8.106,16.782-10.109,24.889-4.468c8.107,5.638,10.108,16.783,4.468,24.889l-69.737,100.248 c-0.695,0.999-1.067,2.186-1.067,3.403v47.69c0,3.291,2.669,5.96,5.96,5.96h88.214c3.291,0,5.96-2.669,5.96-5.96v-18.428 C483.358,289.311,488.086,127.405,381.571,43.46z"/> </g> </g> <g> <g> <path d="M367.46,427.362H144.542c-3.292,0-5.96,2.669-5.96,5.96v37.002c0,23.017,18.658,41.675,41.675,41.675h151.489 c23.017,0,41.675-18.658,41.675-41.675v-37.002C373.421,430.032,370.752,427.362,367.46,427.362z"/> </g> </g> </g>
</svg>