<?xml version="1.0" encoding="UTF-8"?>
<svg version="1.1" xmlns="http://www.w3.org/2000/svg" width="640" height="640">
<path d="M0 0 C1.4625057 -0.00258675 2.92501069 -0.00560077 4.38751471 -0.0090034 C8.39365272 -0.01704055 12.39977277 -0.01886114 16.40591788 -0.01960087 C20.73200186 -0.02145722 25.05807664 -0.02900756 29.38415527 -0.03573608 C38.83913277 -0.04929759 48.29410602 -0.05534101 57.74909163 -0.05974674 C63.65901879 -0.06251343 69.56894433 -0.06675161 75.47887039 -0.07125092 C91.8586765 -0.08344181 108.23848131 -0.09374078 124.61829185 -0.09712601 C125.66595237 -0.09734557 126.71361289 -0.09756514 127.7930207 -0.09779136 C128.84311912 -0.09800964 129.89321753 -0.09822791 130.97513711 -0.09845281 C133.10286037 -0.09889626 135.23058363 -0.09934283 137.35830688 -0.09979248 C138.94142677 -0.10012463 138.94142677 -0.10012463 140.55652888 -0.10046348 C157.6413758 -0.10440783 174.72617998 -0.12185159 191.81101041 -0.145152 C209.37400502 -0.16891007 226.93697822 -0.18132992 244.49998915 -0.18249393 C254.35187778 -0.1834083 264.20371073 -0.1891003 274.05558395 -0.20731354 C282.4482357 -0.22277492 290.84081458 -0.22779965 299.23347788 -0.21957543 C303.50913094 -0.21568991 307.78463752 -0.2164948 312.06027222 -0.23063278 C361.34923403 -0.38399959 404.16799505 12.84265686 439.76895142 48.19512939 C467.94584606 77.11843185 483.81291555 116.28347787 483.78439331 156.49649048 C483.78698006 157.95899617 483.78999408 159.42150116 483.79339671 160.88400519 C483.80143386 164.89014319 483.80325445 168.89626325 483.80399418 172.90240836 C483.80585053 177.22849234 483.81340088 181.55456712 483.82012939 185.88064575 C483.8336909 195.33562325 483.83973432 204.7905965 483.84414005 214.2455821 C483.84690674 220.15550927 483.85114492 226.06543481 483.85564423 231.97536087 C483.86783512 248.35516698 483.87813409 264.73497179 483.88151932 281.11478233 C483.88173888 282.16244285 483.88195845 283.21010337 483.88218467 284.28951118 C483.88240295 285.3396096 483.88262122 286.38970801 483.88284612 287.47162759 C483.88328957 289.59935085 483.88373614 291.72707411 483.88418579 293.85479736 C483.88440722 294.91021062 483.88462865 295.96562388 483.88485679 297.05301936 C483.88880114 314.13786628 483.9062449 331.22267046 483.92954531 348.30750088 C483.95330338 365.87049549 483.96572323 383.4334687 483.96688724 400.99647963 C483.96780161 410.84836826 483.97349361 420.70020121 483.99170685 430.55207443 C484.00716823 438.94472618 484.01219296 447.33730506 484.00396875 455.72996835 C484.00008322 460.00562142 484.00088811 464.281128 484.01502609 468.5567627 C484.1683929 517.84572451 470.94173645 560.66448553 435.58926392 596.26544189 C406.66596146 624.44233654 367.50091544 640.30940603 327.28790283 640.28088379 C325.82539714 640.28347054 324.36289215 640.28648456 322.90038812 640.28988719 C318.89425012 640.29792434 314.88813006 640.29974493 310.88198495 640.30048466 C306.55590097 640.30234101 302.22982619 640.30989135 297.90374756 640.31661987 C288.44877006 640.33018138 278.99379681 640.33622479 269.53881121 640.34063053 C263.62888404 640.34339722 257.7189585 640.3476354 251.80903244 640.3521347 C235.42922633 640.3643256 219.04942152 640.37462457 202.66961098 640.3780098 C201.62195046 640.37822936 200.57428994 640.37844893 199.49488213 640.37867515 C198.44478371 640.37889343 197.3946853 640.3791117 196.31276572 640.3793366 C194.18504246 640.37978005 192.0573192 640.38022662 189.92959595 640.38067627 C188.34647606 640.38100841 188.34647606 640.38100841 186.73137395 640.38134727 C169.64652703 640.38529162 152.56172285 640.40273538 135.47689243 640.42603579 C117.91389782 640.44979386 100.35092461 640.46221371 82.78791368 640.46337771 C72.93602505 640.46429209 63.0841921 640.46998409 53.23231888 640.48819733 C44.83966713 640.50365871 36.44708826 640.50868344 28.05442496 640.50045922 C23.77877189 640.4965737 19.50326531 640.49737859 15.22763062 640.51151657 C-34.0613312 640.66488338 -76.88009222 627.43822693 -112.48104858 592.08575439 C-140.65794323 563.16245194 -156.52501272 523.99740591 -156.49649048 483.78439331 C-156.49907723 482.32188762 -156.50209125 480.85938262 -156.50549388 479.3968786 C-156.51353103 475.3907406 -156.51535162 471.38462054 -156.51609135 467.37847543 C-156.5179477 463.05239145 -156.52549804 458.72631667 -156.53222656 454.40023804 C-156.54578807 444.94526054 -156.55183148 435.49028729 -156.55623722 426.03530169 C-156.55900391 420.12537452 -156.56324209 414.21544898 -156.56774139 408.30552292 C-156.57993228 391.92571681 -156.59023126 375.545912 -156.59361649 359.16610146 C-156.59383605 358.11844094 -156.59405562 357.07078042 -156.59428184 355.99137261 C-156.59450012 354.94127419 -156.59471839 353.89117578 -156.59494328 352.8092562 C-156.59538674 350.68153294 -156.59583331 348.55380968 -156.59628296 346.42608643 C-156.59650439 345.37067317 -156.59672582 344.31525991 -156.59695396 343.22786443 C-156.60089831 326.14301751 -156.61834207 309.05821333 -156.64164248 291.97338291 C-156.66540055 274.41038829 -156.6778204 256.84741509 -156.6789844 239.28440416 C-156.67989878 229.43251553 -156.68559078 219.58068258 -156.70380402 209.72880936 C-156.7192654 201.33615761 -156.72429013 192.94357873 -156.71606591 184.55091543 C-156.71218039 180.27526237 -156.71298528 175.99975579 -156.72712326 171.72412109 C-156.88049007 122.43515928 -143.65383362 79.61639826 -108.30136108 44.01544189 C-79.37805863 15.83854725 -40.2130126 -0.02852224 0 0 Z " fill="#34BA5A" transform="translate(156.35604858398438,-0.14044189453125)"/>
<path d="M0 0 C1.16761932 -0.00569124 2.33523865 -0.01138248 3.53824037 -0.01724619 C4.83227 -0.01842606 6.12629963 -0.01960594 7.45954227 -0.02082157 C8.83936315 -0.0255504 10.21918264 -0.03070101 11.59900051 -0.03623921 C15.4041707 -0.0501743 19.20933129 -0.05773713 23.01452053 -0.0642122 C26.27518956 -0.07057516 29.53584279 -0.0806465 32.79650199 -0.09077286 C43.5429789 -0.12413152 54.28946545 -0.14562731 65.03597721 -0.16397271 C67.83444493 -0.16876662 70.63291225 -0.17375009 73.43137956 -0.17877793 C90.80704631 -0.20975366 108.18271638 -0.23644156 125.55840302 -0.25319672 C129.58510627 -0.25714628 133.61180947 -0.26114926 137.63851261 -0.2652216 C139.13975783 -0.26673414 139.13975783 -0.26673414 140.67133123 -0.26827724 C156.87543056 -0.28527525 173.07937692 -0.32637249 189.2834016 -0.37724458 C205.91843013 -0.42904011 222.55338006 -0.45814177 239.18848854 -0.4653936 C248.52892376 -0.47005402 257.86910872 -0.48478556 267.20946407 -0.5251379 C275.16663635 -0.55947245 283.12351325 -0.57336352 291.08075535 -0.56071376 C295.13898057 -0.55489439 299.19658139 -0.55869885 303.2547121 -0.5888834 C306.97552172 -0.61633217 310.69526594 -0.61568394 314.41610015 -0.59337295 C316.38827313 -0.58864906 318.3604502 -0.61334465 320.33245748 -0.63934225 C328.66149337 -0.5514919 334.80702969 1.0890363 341.53719425 6.1398077 C347.2064523 12.08970811 350.77940227 17.58331249 350.80004978 25.97175694 C350.80773207 27.1453494 350.81541436 28.31894187 350.82332945 29.52809775 C350.82159648 30.81338885 350.81986352 32.09867996 350.81807804 33.42291927 C350.82324739 34.80533122 350.82927429 36.18774018 350.83608484 37.57014501 C350.85220768 41.36855544 350.85580302 45.16689024 350.85727978 48.96533084 C350.86098394 53.06230839 350.87608024 57.15924683 350.88955021 61.25620174 C350.91670645 70.21503077 350.92876487 79.17384188 350.93757153 88.13270521 C350.94309857 93.72814882 350.95157372 99.32358553 350.96057987 104.91902447 C350.98496467 120.41514877 351.00556288 135.91126755 351.01233006 151.40741062 C351.01298875 152.89492251 351.01298875 152.89492251 351.01366076 154.41248515 C351.01409731 155.40651712 351.01453387 156.40054909 351.01498365 157.42470324 C351.01587058 159.4389503 351.01676371 161.45319736 351.017663 163.46744442 C351.01832729 164.96614488 351.01832729 164.96614488 351.019005 166.49512212 C351.02689869 182.67963855 351.0617999 198.86397475 351.10838205 215.04842158 C351.15583559 231.66999257 351.18073498 248.29147318 351.18306589 264.913113 C351.18489802 274.24343295 351.19636759 283.57351811 351.23270512 292.90377331 C351.2635432 300.84990462 351.27372715 308.7957286 351.25722891 316.74190839 C351.24942803 320.79407072 351.25121315 324.84561453 351.27934361 328.89770031 C351.30489837 332.61285251 351.30236302 336.32692393 351.27816218 340.04207544 C351.27242349 342.0111128 351.29606397 343.98016948 351.3210063 345.94905722 C351.22868681 354.27929488 349.55794987 360.3918974 344.53719425 367.1398077 C338.90524935 372.47276334 332.49024911 376.51209047 324.57381725 376.52012444 C323.39638364 376.52856438 322.21895003 376.53700432 321.00583661 376.54570001 C319.72141199 376.53968997 318.43698736 376.53367992 317.11364079 376.52748775 C315.72822668 376.53166213 314.342816 376.53714022 312.95741165 376.54380757 C309.15541562 376.55826756 305.35363627 376.55401577 301.55162835 376.54664075 C297.44927225 376.54191271 293.34696326 376.55441575 289.24462223 376.56465816 C281.20955085 376.58185897 273.17455763 376.58268348 265.13947262 376.57744526 C258.6084019 376.57340451 252.07735429 376.57484599 245.54628468 376.58019352 C244.61688602 376.58094194 243.68748737 376.58169036 242.72992512 376.58246147 C240.84186817 376.58399294 238.95381122 376.58553129 237.06575428 376.58707643 C219.35747928 376.60080625 201.64924845 376.59536053 183.94097446 376.58389122 C167.74160118 376.57395955 151.54234214 376.58689752 135.34298648 376.61082541 C118.70896347 376.63521019 102.07499367 376.64482574 85.44095314 376.63817269 C76.10242604 376.63467893 66.7639868 376.6369228 57.42547321 376.65442371 C49.47529 376.66913797 41.52525649 376.66979137 33.57507624 376.6523528 C29.51936602 376.64383377 25.46392331 376.64171511 21.40822697 376.65700436 C17.69345684 376.6708349 13.9791838 376.66610978 10.26444255 376.64676512 C8.28830038 376.64121964 6.31213302 376.65529036 4.33603871 376.67011923 C-4.63061122 376.5957089 -11.1537691 374.98273029 -18.02481139 368.78009158 C-25.12837685 360.6772337 -26.33250839 352.55545552 -26.21124935 342.11498165 C-26.21674097 340.72524432 -26.22485406 339.33551533 -26.23533666 337.94580668 C-26.25637675 334.15484411 -26.24034222 330.36483389 -26.21783566 326.57391369 C-26.20006978 322.47503449 -26.21706191 318.37627447 -26.2295599 314.2773962 C-26.24849122 306.25961307 -26.23537668 298.24219112 -26.21103401 290.22443489 C-26.1837327 280.88282395 -26.187075 271.54129811 -26.19130068 262.1996574 C-26.19767365 245.53127739 -26.17438228 228.86306859 -26.13516903 212.19473934 C-26.0971452 196.02769415 -26.08299954 179.86084949 -26.0941534 163.69376278 C-26.10627228 146.0758817 -26.10591025 128.45808868 -26.08318174 110.84021491 C-26.08076722 108.96136201 -26.07835525 107.0825091 -26.07594585 105.2036562 C-26.07473878 104.27928571 -26.0735317 103.35491522 -26.07228804 102.40253351 C-26.06453469 95.89343231 -26.06531498 89.38436394 -26.06911755 82.87526035 C-26.07336409 74.94347317 -26.06289301 67.01186147 -26.03389044 59.0801237 C-26.01941608 55.03452091 -26.01123662 50.98917351 -26.02037716 46.94354916 C-26.02854523 43.23820378 -26.01815739 39.53338517 -25.99312501 35.8281196 C-25.98451959 33.8572069 -25.9954336 31.88623861 -26.00710356 29.91534168 C-25.90878243 19.97257923 -23.67815567 13.35515763 -16.46280575 6.1398077 C-13.55544232 4.2722305 -10.56033479 2.66727291 -7.46280575 1.1398077 C-4.84880007 -0.16719514 -2.92892558 0.00829808 0 0 Z " fill="#CC1F1F" transform="translate(157.46280574798584,131.86019229888916)"/>
<path d="M0 0 C22.89744739 -0.06790052 45.79481238 -0.12308824 68.69233513 -0.15543652 C79.32568865 -0.17086019 89.95897486 -0.19186297 100.59228516 -0.22631836 C109.86770429 -0.25635924 119.14307464 -0.27560764 128.41854107 -0.28226548 C133.32308379 -0.28615302 138.22748701 -0.2951938 143.13198471 -0.31719017 C147.76290922 -0.33778825 152.39363883 -0.34378751 157.0246048 -0.33932304 C158.71024007 -0.34013795 160.39588293 -0.34596306 162.08147812 -0.35761642 C204.70165424 -0.63743012 244.08413403 17.17025953 274.5859375 46.52636719 C300.87945003 72.63635901 319.74032544 111.03026377 320.13142776 148.49388695 C320.13951427 151.11472798 320.14230079 153.73522849 320.14044189 156.35604858 C320.14302865 157.81855428 320.14604267 159.28105927 320.1494453 160.74356329 C320.15748245 164.7497013 320.15930303 168.75582135 320.16004276 172.76196647 C320.16189911 177.08805044 320.16944946 181.41412523 320.17617798 185.74020386 C320.18973948 195.19518136 320.1957829 204.6501546 320.20018864 214.10514021 C320.20295532 220.01506737 320.2071935 225.92499291 320.21169281 231.83491898 C320.2238837 248.21472508 320.23418267 264.59452989 320.2375679 280.97434044 C320.23778747 282.02200096 320.23800703 283.06966148 320.23823325 284.14906929 C320.23845153 285.1991677 320.23866981 286.24926612 320.2388947 287.3311857 C320.23933816 289.45890896 320.23978472 291.58663221 320.24023438 293.71435547 C320.2404558 294.76976873 320.24067723 295.82518199 320.24090537 296.91257747 C320.24484973 313.99742439 320.26229348 331.08222856 320.2855939 348.16705899 C320.30935197 365.7300536 320.32177181 383.29302681 320.32293582 400.85603774 C320.32385019 410.70792636 320.32954219 420.55975932 320.34775543 430.41163254 C320.36321681 438.80428429 320.36824155 447.19686316 320.36001733 455.58952646 C320.3561318 459.86517953 320.35693669 464.14068611 320.37107468 468.4163208 C320.52444149 517.70528262 307.29778504 560.52404363 271.9453125 596.125 C243.02201005 624.30189465 203.85696402 640.16896413 163.64395142 640.14044189 C162.18144572 640.14302865 160.71894073 640.14604267 159.25643671 640.1494453 C155.2502987 640.15748245 151.24417865 640.15930303 147.23803353 640.16004276 C142.91194956 640.16189911 138.58587477 640.16944946 134.25979614 640.17617798 C124.80481864 640.18973948 115.3498454 640.1957829 105.89485979 640.20018864 C99.98493263 640.20295532 94.07500709 640.2071935 88.16508102 640.21169281 C71.78527492 640.2238837 55.40547011 640.23418267 39.02565956 640.2375679 C37.97799904 640.23778747 36.93033852 640.23800703 35.85093071 640.23823325 C34.8008323 640.23845153 33.75073388 640.23866981 32.6688143 640.2388947 C30.54109104 640.23933816 28.41336779 640.23978472 26.28564453 640.24023438 C24.70252464 640.24056652 24.70252464 640.24056652 23.08742253 640.24090537 C6.00257561 640.24484973 -11.08222856 640.26229348 -28.16705899 640.2855939 C-45.7300536 640.30935197 -63.29302681 640.32177181 -80.85603774 640.32293582 C-90.70792636 640.32385019 -100.55975932 640.32954219 -110.41163254 640.34775543 C-118.80428429 640.36321681 -127.19686316 640.36824155 -135.58952646 640.36001733 C-139.86517953 640.3561318 -144.14068611 640.35693669 -148.4163208 640.37107468 C-197.70528262 640.52444149 -240.52404363 627.29778504 -276.125 591.9453125 C-301.77801111 565.61275142 -320.1465267 527.48180453 -320.12025452 490.28039551 C-320.12110894 489.54668779 -320.12196337 488.81298007 -320.12284368 488.05703878 C-320.12447826 485.62198463 -320.11901055 483.18700083 -320.11352539 480.75195312 C-320.11324306 478.99710085 -320.11340216 477.24224845 -320.1139679 475.48739624 C-320.11425406 470.74007707 -320.10838654 465.99278332 -320.10139394 461.24547005 C-320.09513032 456.2780279 -320.09455422 451.31058513 -320.09336853 446.34313965 C-320.09026408 436.94400275 -320.08206264 427.54487752 -320.07201904 418.14574575 C-320.06083038 407.44201698 -320.05534052 396.73828765 -320.05032361 386.03455448 C-320.03987928 364.02302837 -320.02154482 342.01151824 -320 320 C-295.25 320 -270.5 320 -245 320 C-244.95101562 332.06046875 -244.90203125 344.1209375 -244.8515625 356.546875 C-244.81617107 364.19401753 -244.78028792 371.84115253 -244.7421875 379.48828125 C-244.68182365 391.62221553 -244.6234493 403.75613569 -244.578125 415.89013672 C-244.5451026 424.72825732 -244.50521529 433.56631626 -244.45720994 442.40436864 C-244.43204652 447.08061894 -244.41023567 451.75682887 -244.39665604 456.43312836 C-244.38374296 460.84244567 -244.36159071 465.25162378 -244.33261681 469.66086388 C-244.32361279 471.27159041 -244.31786776 472.88233932 -244.31578636 474.49308968 C-244.27675513 500.13037183 -237.43539149 521.53372846 -219 540 C-217.86111328 541.15628906 -217.86111328 541.15628906 -216.69921875 542.3359375 C-199.60969479 558.72621743 -177.9858694 564.33526918 -154.8059082 564.25396729 C-153.40991968 564.25627683 -152.01393238 564.25945665 -150.61794758 564.26342177 C-146.81446152 564.27171058 -143.01107683 564.26767167 -139.20759058 564.26144934 C-135.09300737 564.25690144 -130.97844091 564.26392014 -126.86386108 564.26940918 C-118.81624763 564.27827998 -110.76867159 564.2763915 -102.7210567 564.2705839 C-96.1777737 564.26605829 -89.63450116 564.26545839 -83.09121704 564.26763153 C-81.69174472 564.26809123 -81.69174472 564.26809123 -80.26400024 564.26856022 C-78.36838142 564.2691997 -76.4727626 564.26984812 -74.57714379 564.2705054 C-56.8219926 564.27620192 -39.06686209 564.26966145 -21.31171429 564.25890467 C-6.09289032 564.24996977 9.12590314 564.25152201 24.34472656 564.26074219 C42.03843723 564.27145681 59.73212978 564.27565266 77.42584324 564.26951766 C79.31430117 564.26888059 81.2027591 564.26825185 83.09121704 564.26763153 C84.02025791 564.26732298 84.94929879 564.26701443 85.90649241 564.26669653 C92.43826623 564.26497316 98.97002851 564.26787695 105.50180054 564.27259064 C113.46705874 564.27821272 121.43227755 564.27665516 129.39753127 564.26602915 C133.45775758 564.26079028 137.51791832 564.25868511 141.57814407 564.26532745 C145.30138981 564.27132618 149.02450974 564.26794774 152.7477442 564.25737235 C154.71864854 564.25411165 156.68956175 564.26057405 158.66045666 564.26748681 C182.54417615 564.16315018 203.02945141 555.97054859 220 539 C220.78246094 538.21753906 221.56492187 537.43507813 222.37109375 536.62890625 C230.11172257 528.47057065 235.26766166 519.4295215 239.3125 509 C239.55508545 508.38431152 239.7976709 507.76862305 240.04760742 507.13427734 C243.88256036 496.67186419 244.29352481 485.85732399 244.26069641 474.82609558 C244.26372371 473.43224472 244.26761606 472.03839551 244.27228898 470.64454919 C244.28250333 466.84685952 244.28040406 463.04926495 244.27610838 459.25156772 C244.27362913 455.14305871 244.28267014 451.0345719 244.29014587 446.92607117 C244.30286182 438.88948636 244.30469044 430.85293501 244.30234561 422.81634184 C244.30055878 416.28023499 244.30231991 409.74413825 244.30657005 403.20803261 C244.30716524 402.27591723 244.30776043 401.34380185 244.30837366 400.38344056 C244.30958547 398.48951893 244.31079961 396.59559731 244.31201603 394.70167569 C244.32287966 376.96074242 244.32073469 359.21982819 244.31463119 341.47889385 C244.30946334 325.27171787 244.32071608 309.06460202 244.33972941 292.85743793 C244.35913134 276.19042702 244.36735966 259.52344452 244.36360615 242.85642225 C244.36169765 233.50939124 244.36414738 224.16241139 244.37832069 214.81538963 C244.39026554 206.85789022 244.39160472 198.90047347 244.37953053 190.94297286 C244.3736635 186.88841895 244.37248166 182.83401599 244.38453293 178.77947235 C244.39546542 175.05786968 244.39220211 171.33654266 244.37827124 167.61495248 C244.3744132 165.65222506 244.38511089 163.68948504 244.39656812 161.72678727 C244.243154 136.18411114 234.55898026 115.58457068 216.625 97.62109375 C208.46141539 89.88923718 199.42835645 84.73188651 189 80.6875 C188.38431152 80.44491455 187.76862305 80.2023291 187.13427734 79.95239258 C175.80442363 75.799483 164.02901314 75.69653591 152.12402344 75.68115234 C150.45724511 75.67183499 148.79047138 75.66166369 147.123703 75.65071106 C142.63489702 75.62360048 138.14612208 75.60831837 133.65725613 75.59528303 C128.95272227 75.57956887 124.24825105 75.55280541 119.54376221 75.5272522 C110.65123617 75.48061027 101.75869816 75.44379592 92.86611295 75.41057932 C80.83818909 75.36507719 68.81034308 75.30425797 56.78248405 75.24433136 C37.85502855 75.15042966 18.92755006 75.07687547 0 75 C0 50.25 0 25.5 0 0 Z " fill="#41A447" transform="translate(320,0)"/>
<path d="M0 0 C21.82761615 -0.04521047 43.65519417 -0.08202619 65.48284531 -0.10362434 C75.61862621 -0.11392091 85.75437587 -0.1279502 95.89013672 -0.15087891 C104.72821425 -0.17086246 113.56626914 -0.1837282 122.40436864 -0.18817699 C127.08065039 -0.19077598 131.75686742 -0.19685078 136.43312836 -0.21146011 C140.84239743 -0.22512259 145.25157564 -0.22920527 149.66086388 -0.22621536 C151.27161085 -0.22676167 152.88236113 -0.23068717 154.49308968 -0.23841095 C166.3667784 -0.29251327 177.82898649 0.28427346 189 4.6875 C189.67514648 4.95022705 190.35029297 5.2129541 191.04589844 5.48364258 C202.88933355 10.24091449 212.04069026 17.05311649 221 26 C222.22396484 27.2065625 222.22396484 27.2065625 223.47265625 28.4375 C239.79282351 45.45750291 245.33485852 67.13121144 245.25396729 90.1940918 C245.25627683 91.59008032 245.25945665 92.98606762 245.26342177 94.38205242 C245.27171058 98.18553848 245.26767167 101.98892317 245.26144934 105.79240942 C245.25690144 109.90699263 245.26392014 114.02155909 245.26940918 118.13613892 C245.27827998 126.18375237 245.2763915 134.23132841 245.2705839 142.2789433 C245.26605829 148.8222263 245.26545839 155.36549884 245.26763153 161.90878296 C245.267938 162.8417645 245.26824446 163.77474605 245.26856022 164.73599976 C245.2691997 166.63161858 245.26984812 168.5272374 245.2705054 170.42285621 C245.27620192 188.1780074 245.26966145 205.93313791 245.25890467 223.68828571 C245.24996977 238.90710968 245.25152201 254.12590314 245.26074219 269.34472656 C245.27145681 287.03843723 245.27565266 304.73212978 245.26951766 322.42584324 C245.26888059 324.31430117 245.26825185 326.2027591 245.26763153 328.09121704 C245.26732298 329.02025791 245.26701443 329.94929879 245.26669653 330.90649241 C245.26497316 337.43826623 245.26787695 343.97002851 245.27259064 350.50180054 C245.27821272 358.46705874 245.27665516 366.43227755 245.26602915 374.39753127 C245.26079028 378.45775758 245.25868511 382.51791832 245.26532745 386.57814407 C245.27132618 390.30138981 245.26794774 394.02450974 245.25737235 397.7477442 C245.25411165 399.71864854 245.26057405 401.68956175 245.26748681 403.66045666 C245.16194179 427.8207874 236.81574697 447.66068582 220 465 C219.19175781 465.91845703 219.19175781 465.91845703 218.3671875 466.85546875 C206.26767177 480.14061542 186.65704091 488.37272144 169 490 C164.47588672 490.15067024 159.95366686 490.14349514 155.42736816 490.14044189 C154.03783381 490.14302816 152.6483002 490.14604204 151.2587676 490.1494453 C147.44980655 490.15748807 143.64086437 490.15930335 139.83189583 490.16004276 C135.71989566 490.16189811 131.60790518 490.16944792 127.49591064 490.17617798 C118.50800268 490.1897431 109.52009919 490.19578336 100.53218269 490.20018864 C94.91559378 490.20295449 89.29900658 490.20719251 83.68241882 490.21169281 C68.11930703 490.22388377 52.5561966 490.23418299 36.99308014 490.2375679 C35.49978015 490.23789725 35.49978015 490.23789725 33.97631249 490.23823325 C32.97844866 490.23845153 31.98058483 490.23866981 30.9524827 490.2388947 C28.93056138 490.23933816 26.90864007 490.23978472 24.88671875 490.24023438 C23.88378412 490.2404558 22.8808495 490.24067723 21.84752291 490.24090537 C5.60769967 490.24485077 -10.63207863 490.26229769 -26.87188452 490.2855939 C-43.56133349 490.30934102 -60.25075995 490.3217713 -76.94022608 490.32293582 C-86.30410365 490.32385076 -95.66792267 490.32955732 -105.03178406 490.34775543 C-113.00769793 490.36320192 -120.98353516 490.3682502 -128.95946115 490.36001733 C-133.02411068 490.3561267 -137.0886061 490.35696217 -141.15323639 490.37107468 C-144.88428405 490.3839097 -148.61506332 490.38253309 -152.34611112 490.37048396 C-154.31405239 490.36763381 -156.28199872 490.37938959 -158.24990225 490.39190602 C-182.4216365 490.25949009 -202.56515614 481.6546271 -220 465 C-220.61488281 464.45988281 -221.22976562 463.91976563 -221.86328125 463.36328125 C-235.42585694 450.98548228 -242.77913046 431.84135812 -245 414 C-245.08499443 411.58193618 -245.12205344 409.16188128 -245.12025452 406.74232483 C-245.12110894 406.04622351 -245.12196337 405.35012218 -245.12284368 404.63292688 C-245.12448026 402.31914119 -245.1190072 400.00542931 -245.11352539 397.69165039 C-245.1132431 396.02561444 -245.11340207 394.35957836 -245.1139679 392.69354248 C-245.11425423 388.18375929 -245.10838395 383.67400281 -245.10139394 379.16422582 C-245.09513315 374.44635355 -245.09455444 369.72848064 -245.09336853 365.01060486 C-245.09026325 356.08246673 -245.08206068 347.15434088 -245.07201904 338.22620815 C-245.06083297 328.05937273 -245.05534117 317.89253672 -245.05032361 307.72569668 C-245.0398774 286.81712275 -245.0215419 265.90856565 -245 245 C-232.46 245 -219.92 245 -207 245 C-206.99589111 249.98037354 -206.99178223 254.96074707 -206.98754883 260.09204102 C-206.97032512 276.57647929 -206.9260296 293.06076355 -206.86790943 309.54510593 C-206.83333988 319.53619868 -206.80791448 329.5271546 -206.80444336 339.51831055 C-206.80139225 348.23237618 -206.78074842 356.94619764 -206.73947543 365.66016906 C-206.71824734 370.2689884 -206.70549197 374.8774615 -206.71384621 379.48633003 C-206.72145145 383.83594303 -206.70530442 388.18485823 -206.67193985 392.53434372 C-206.66378376 394.11961627 -206.663864 395.70495925 -206.67340279 397.29022408 C-206.75592387 412.52918274 -203.84825552 426.48756557 -193 438 C-184.28729749 445.72143695 -174.10026215 451.10977184 -162.31788921 451.13701439 C-160.56941237 451.1446262 -160.56941237 451.1446262 -158.78561276 451.15239179 C-157.50402824 451.15288955 -156.22244373 451.15338731 -154.90202332 451.15390015 C-153.5274521 451.15791599 -152.15288207 451.16235442 -150.77831346 451.1671797 C-146.99678367 451.17913811 -143.21526664 451.18479199 -139.43372166 451.18936086 C-135.35643054 451.19531998 -131.27915463 451.2069293 -127.20187378 451.21765137 C-117.3509584 451.24217206 -107.50003798 451.25680399 -97.64910147 451.26971143 C-94.86541292 451.27342424 -92.08172487 451.27739742 -89.29803681 451.2814641 C-72.00300579 451.30670641 -54.70797396 451.32875451 -37.41292858 451.34119225 C-33.40687749 451.34412185 -29.40082642 451.34708352 -25.39477539 451.35009766 C-23.90128646 451.35121673 -23.90128646 451.35121673 -22.37762604 451.35235842 C-6.263676 451.36500062 9.8501634 451.39820817 25.96406177 451.43989949 C42.51781322 451.48237661 59.07150815 451.50589413 75.62531394 451.51111281 C84.91551013 451.51452086 94.20553361 451.526204 103.49567604 451.55921555 C111.41130883 451.587297 119.32673347 451.59818013 127.24241219 451.58702008 C131.27677051 451.58185363 135.31069355 451.58458772 139.34498787 451.60948563 C143.0485525 451.63215008 146.75137352 451.63110732 150.45495268 451.61228175 C152.40814991 451.60820431 154.36135291 451.62849994 156.3144353 451.65006864 C170.04288494 451.52854814 182.81172569 447.5341315 193 438 C203.69307671 426.57326451 206.77183248 412.74885636 206.62818909 397.55903625 C206.63325011 396.17282533 206.64049082 394.78662099 206.64968723 393.40043133 C206.66841537 389.63773576 206.65648777 385.87570033 206.6389643 382.11302269 C206.6254883 378.03732107 206.64106355 373.96170965 206.65278625 369.88601685 C206.67109005 361.92095863 206.6627 353.956147 206.64469803 345.99109665 C206.63063055 339.51509062 206.62678811 333.03915118 206.6301403 326.56313133 C206.63061775 325.63888234 206.63109519 324.71463335 206.6315871 323.76237681 C206.6326135 321.88439358 206.63366886 320.00641037 206.63475286 318.12842717 C206.64330486 301.55228448 206.62669219 284.97626033 206.59692383 268.40014648 C206.56807606 252.33629379 206.56101149 236.27261174 206.57641602 220.20874023 C206.59319526 202.68748287 206.59719591 185.16630638 206.57970566 167.64504689 C206.57786138 165.77517173 206.57602666 163.90529655 206.57420158 162.03542137 C206.57328949 161.11555779 206.5723774 160.19569421 206.57143768 159.24795598 C206.56584407 152.78226202 206.56912833 146.31660771 206.57574654 139.85091591 C206.5834956 131.968023 206.5766702 124.08529774 206.5515715 116.20243851 C206.53911448 112.18466036 206.5328836 108.16714274 206.54411316 104.14935493 C206.55421623 100.46494012 206.54556856 96.78104284 206.52253198 93.09669056 C206.51499903 91.14681249 206.52686571 89.19688851 206.53963572 87.24703771 C206.4138905 73.79825223 202.24849512 61.97183767 193.12109375 51.93359375 C188.3762247 47.4954637 183.02813522 44.38511583 177 42 C176.37624544 41.75169528 175.75249088 41.50339056 175.10983467 41.24756145 C167.0348609 38.41952529 158.97707234 38.55822525 150.53466797 38.56762695 C148.88788626 38.55859663 147.24111125 38.54826631 145.59434509 38.53674316 C141.15084605 38.50929613 136.70747498 38.49990545 132.26390219 38.49388909 C127.61005735 38.48447325 122.9563069 38.45826736 118.30252075 38.43388367 C109.50200473 38.39030303 100.70150713 38.36170433 91.90091622 38.33856028 C81.87663666 38.31146328 71.85245244 38.26755461 61.82824111 38.22227156 C41.21886535 38.12954611 20.60949872 38.06002895 0 38 C0 25.46 0 12.92 0 0 Z " fill="#0B4AAE" transform="translate(320,75)"/>
<path d="M0 0 C0.68608337 -0.00085602 1.37216675 -0.00171204 2.07904053 -0.00259399 C4.39621539 -0.00425545 6.71331875 0.00128458 9.03048706 0.00672913 C10.71279841 0.0070353 12.39510989 0.00690224 14.07742119 0.00636387 C18.59398847 0.00613755 23.1105294 0.01194515 27.62709045 0.0189743 C31.8609221 0.02465744 36.09474724 0.02493678 40.32858276 0.02565002 C52.72124578 0.0309032 65.11390386 0.04486427 77.50656128 0.05775452 C105.18531128 0.07837952 132.86406128 0.09900452 161.38156128 0.12025452 C161.38156128 62.16025452 161.38156128 124.20025452 161.38156128 188.12025452 C99.34156128 188.12025452 37.30156128 188.12025452 -26.61843872 188.12025452 C-26.70093872 160.56525452 -26.78343872 133.01025452 -26.86843872 104.62025452 C-26.90485474 95.9223053 -26.94127075 87.22435608 -26.97879028 78.26283264 C-26.99685669 67.63490295 -26.99685669 67.63490295 -27.00021362 62.65821838 C-27.00393763 59.18513247 -27.01891686 55.71229155 -27.04074097 52.23927307 C-27.06823405 47.80518469 -27.07639301 43.37145113 -27.07072783 38.93728542 C-27.07191196 37.3124871 -27.07981071 35.68767602 -27.09529924 34.06295109 C-27.18839732 23.81882527 -26.30548381 17.49280593 -20.43093872 8.93275452 C-16.88920351 5.39101931 -13.07945744 3.3200889 -8.61843872 1.12025452 C-5.72676906 -0.32558031 -3.2320437 -0.00240838 0 0 Z " fill="#DD1D27" transform="translate(158.61843872070313,131.87974548339844)"/>
<path d="M0 0 C1.37716207 -0.004456 2.75432158 -0.00977123 4.13147736 -0.01586872 C7.90624981 -0.03001634 11.6809398 -0.03171263 15.45573497 -0.03127182 C19.5309371 -0.03292293 23.60610554 -0.04599512 27.68128967 -0.0574646 C36.58862257 -0.08029288 45.49593161 -0.08823317 54.40328979 -0.09329104 C59.96962843 -0.0965512 65.53596018 -0.10307569 71.10229492 -0.11029243 C86.52643613 -0.1298571 101.95057093 -0.14626157 117.37472534 -0.14916897 C118.36135583 -0.14935654 119.34798632 -0.14954411 120.36451471 -0.14973736 C122.36450481 -0.1501036 124.36449492 -0.1504673 126.36448503 -0.15082847 C127.35722987 -0.15101128 128.34997471 -0.1511941 129.37280273 -0.15138245 C130.86374691 -0.15165327 130.86374691 -0.15165327 132.38481116 -0.15192956 C148.47917695 -0.15546881 164.57340873 -0.18247621 180.66772807 -0.21988034 C197.20802078 -0.25801189 213.74824709 -0.27732681 230.28858471 -0.27762848 C239.56866735 -0.27821203 248.84859021 -0.28663758 258.12863159 -0.31562614 C266.03322161 -0.34020517 273.93759359 -0.34737922 281.84221154 -0.33237862 C285.87050811 -0.32523575 289.89837472 -0.32595261 293.92662239 -0.34878922 C297.62452717 -0.36955086 301.32167616 -0.36662149 305.01957428 -0.34591437 C306.96963757 -0.34082915 308.91971929 -0.36006657 310.86968136 -0.38057607 C325.97166779 -0.23887995 339.11192797 4.70023741 349.81860352 15.59056091 C356.93695478 23.84890884 361.65289233 33.97865436 361.67827415 44.95626545 C361.68588597 46.70474229 361.68588597 46.70474229 361.69365156 48.4885419 C361.69414931 49.77012642 361.69464707 51.05171094 361.69515991 52.37213135 C361.69917576 53.74670256 361.70361419 55.12127259 361.70843947 56.49584121 C361.72039788 60.27737099 361.72605176 64.05888802 361.73062062 67.840433 C361.73657974 71.91772413 361.74818906 75.99500003 361.75891113 80.07228088 C361.78343182 89.92319627 361.79806376 99.77411669 361.8109712 109.6250532 C361.814684 112.40874175 361.81865718 115.1924298 361.82272387 117.97611785 C361.84796617 135.27114887 361.87001428 152.5661807 361.88245201 169.86122608 C361.88538161 173.86727718 361.88834328 177.87332824 361.89135742 181.87937927 C361.89210347 182.87503856 361.89284952 183.87069784 361.89361818 184.89652862 C361.90626039 201.01047866 361.93946794 217.12431807 361.98115925 233.23821644 C362.02363638 249.79196789 362.04715389 266.34566281 362.05237257 282.8994686 C362.05578062 292.1896648 362.06746377 301.47968827 362.10047531 310.7698307 C362.12855677 318.68546349 362.13943989 326.60088814 362.12827985 334.51656685 C362.12311339 338.55092518 362.12584748 342.58484821 362.15074539 346.61914253 C362.17340985 350.32270716 362.17236708 354.02552818 362.15354152 357.72910734 C362.14946408 359.68230457 362.16975971 361.63550757 362.19132841 363.58858997 C362.05723352 378.73759668 357.08400396 391.74603845 346.26000977 402.55149841 C337.89079052 409.84739246 326.99456641 414.38863432 315.85076904 414.40837574 C314.68326772 414.41283358 313.51576639 414.41729143 312.31288624 414.42188436 C311.02925536 414.4217 309.74562449 414.42151563 308.4230957 414.42132568 C307.04638662 414.42462554 305.6696785 414.42835136 304.29297161 414.43246716 C300.50564767 414.44248173 296.71833959 414.44620309 292.93100429 414.44885647 C288.84763717 414.45276121 284.76428258 414.46233952 280.68092346 414.47106934 C270.81667237 414.49083031 260.95242026 414.50090008 251.08815432 414.50979713 C246.44144912 414.51418115 241.79474507 414.51954772 237.14804077 414.524786 C221.6982802 414.5417989 206.24852033 414.55629223 190.79875183 414.56353474 C186.78958129 414.5654446 182.78041075 414.56736493 178.77124023 414.56932068 C177.77479402 414.56980442 176.7783478 414.57028816 175.75170624 414.57078656 C159.61634849 414.57908369 143.48106496 414.60441498 127.3457396 414.63690136 C110.77505169 414.66999186 94.20440146 414.68798535 77.63368034 414.69117898 C68.33187128 414.69334237 59.03017039 414.70206587 49.72839355 414.72764015 C41.80500751 414.74937446 33.88175592 414.7573842 25.95834345 414.74767337 C21.91834229 414.74313639 17.87861839 414.74497951 13.83865547 414.76443481 C10.13348283 414.78212307 6.42878853 414.7810235 2.7236104 414.76553752 C0.76224538 414.76205619 -1.199125 414.77814549 -3.16041946 414.79514199 C-16.7783219 414.69681032 -28.63845518 410.45387029 -38.74780273 401.17259216 C-49.74567228 389.51567425 -52.92057325 376.05648421 -52.84642029 360.4344635 C-52.85059989 359.05257275 -52.85608084 357.67068544 -52.8627401 356.28880441 C-52.87713138 352.5149688 -52.87296992 348.74135276 -52.86557329 344.96750546 C-52.86082817 340.88832007 -52.87336332 336.80918127 -52.8835907 332.73001099 C-52.90075788 324.74761978 -52.90162302 316.76530736 -52.89637779 308.78290249 C-52.89233091 302.29248429 -52.8937858 295.80208931 -52.89912605 289.31167221 C-52.89987447 288.38674577 -52.9006229 287.46181933 -52.901394 286.50886481 C-52.90292553 284.62967392 -52.90446388 282.75048304 -52.90600897 280.87129216 C-52.91972653 263.26159503 -52.91430159 245.65194237 -52.90282375 228.04224627 C-52.89289258 211.94606043 -52.90583137 195.84998956 -52.92975795 179.75382145 C-52.95416382 163.21005342 -52.96375313 146.6663389 -52.95710522 130.12255323 C-52.95361626 120.8409671 -52.95582372 111.55946937 -52.97335625 102.27789688 C-52.98809685 94.37659979 -52.98868942 86.47545335 -52.97128534 78.57415916 C-52.96278816 74.54627869 -52.96059415 70.51866712 -52.97593689 66.49080086 C-52.98983261 62.79695228 -52.98495896 59.10360174 -52.96569765 55.40978162 C-52.96019037 53.45468096 -52.97416835 51.49955462 -52.98905176 49.54450285 C-52.87617437 35.91930176 -48.60284861 24.20136723 -39.42749023 14.02024841 C-27.94910936 3.06172175 -15.32653318 -0.0290804 0 0 Z M-27.45874023 28.27415466 C-29.32631744 31.18151809 -30.93127503 34.17662562 -32.45874023 37.27415466 C-32.78874023 37.93415466 -33.11874023 38.59415466 -33.45874023 39.27415466 C-33.55850208 41.09295222 -33.59338729 42.91543623 -33.59854794 44.73696041 C-33.60423918 45.90457973 -33.60993042 47.07219906 -33.61579412 48.27520078 C-33.616974 49.56923041 -33.61815388 50.86326004 -33.61936951 52.19650269 C-33.62409833 53.57632357 -33.62924895 54.95614306 -33.63478714 56.33596092 C-33.64872223 60.14113111 -33.65628506 63.9462917 -33.66276014 67.75148094 C-33.66912309 71.01214998 -33.67919444 74.2728032 -33.6893208 77.5334624 C-33.72267946 88.27993932 -33.74417525 99.02642586 -33.76252064 109.77293763 C-33.76731455 112.57140534 -33.77229803 115.36987266 -33.77732587 118.16833997 C-33.8083016 135.54400672 -33.8349895 152.91967679 -33.85174465 170.29536343 C-33.85569422 174.32206669 -33.8596972 178.34876989 -33.86376953 182.37547302 C-33.86477789 183.37630317 -33.86578625 184.37713331 -33.86682517 185.40829165 C-33.88382319 201.61239097 -33.92492042 217.81633733 -33.97579252 234.02036201 C-34.02758805 250.65539054 -34.0566897 267.29034047 -34.06394154 283.92544895 C-34.06860196 293.26588417 -34.0833335 302.60606913 -34.12368584 311.94642448 C-34.15802039 319.90359676 -34.17191145 327.86047366 -34.1592617 335.81771576 C-34.15344232 339.87594098 -34.15724678 343.9335418 -34.18743134 347.99167252 C-34.2148801 351.71248213 -34.21423187 355.43222635 -34.19192088 359.15306056 C-34.18719699 361.12523354 -34.21189259 363.09741062 -34.23789018 365.06941789 C-34.15003983 373.39845378 -32.50951164 379.5439901 -27.45874023 386.27415466 C-21.50883983 391.94341271 -16.01523544 395.51636268 -7.626791 395.53701019 C-6.45319853 395.54469248 -5.27960606 395.55237477 -4.07045019 395.56028986 C-2.78515908 395.5585569 -1.49986798 395.55682393 -0.17562866 395.55503845 C1.20678328 395.5602078 2.58919224 395.5662347 3.97159708 395.57304525 C7.7700075 395.58916809 11.56834231 395.59276343 15.3667829 395.59424019 C19.46376045 395.59794435 23.5606989 395.61304065 27.65765381 395.62651062 C36.61648283 395.65366686 45.57529394 395.66572528 54.53415728 395.67453194 C60.12960088 395.68005898 65.72503759 395.68853413 71.32047653 395.69754028 C86.81660083 395.72192508 102.31271961 395.74252329 117.80886269 395.74929047 C119.29637458 395.74994916 119.29637458 395.74994916 120.81393721 395.75062117 C121.80796918 395.75105773 122.80200115 395.75149428 123.8261553 395.75194407 C125.84040237 395.75283099 127.85464943 395.75372412 129.86889648 395.75462341 C131.36759695 395.7552877 131.36759695 395.7552877 132.89657418 395.75596541 C149.08109061 395.7638591 165.26542681 395.79876031 181.44987364 395.84534246 C198.07144463 395.892796 214.69292524 395.9176954 231.31456506 395.9200263 C240.64488501 395.92185843 249.97497018 395.933328 259.30522537 395.96966553 C267.25135668 396.00050361 275.19718066 396.01068756 283.14336045 395.99418932 C287.19552279 395.98638844 291.2470666 395.98817356 295.29915237 396.01630402 C299.01430457 396.04185878 302.728376 396.03932344 306.4435275 396.01512259 C308.41256486 396.0093839 310.38162155 396.03302438 312.35050929 396.05796671 C320.68074695 395.96564722 326.79334946 394.29491028 333.54125977 389.27415466 C338.8742154 383.64220976 342.91354253 377.22720952 342.9215765 369.31077766 C342.93423641 367.54462724 342.93423641 367.54462724 342.94715208 365.74279702 C342.93813701 363.81616009 342.93813701 363.81616009 342.92893982 361.8506012 C342.93311419 360.46518709 342.93859228 359.07977641 342.94525963 357.69437206 C342.95971963 353.89237603 342.95546784 350.09059668 342.94809282 346.28858876 C342.94336477 342.18623266 342.95586781 338.08392367 342.96611023 333.98158264 C342.98331103 325.94651126 342.98413554 317.91151804 342.97889733 309.87643303 C342.97485658 303.34536231 342.97629805 296.8143147 342.98164558 290.28324509 C342.98239401 289.35384643 342.98314243 288.42444778 342.98391353 287.46688553 C342.985445 285.57882858 342.98698335 283.69077163 342.9885285 281.80271469 C343.00225831 264.09443969 342.99681259 246.38620886 342.98534328 228.67793487 C342.97541161 212.47856159 342.98834958 196.27930255 343.01227748 180.07994689 C343.03666226 163.44592388 343.0462778 146.81195408 343.03962475 130.17791355 C343.03613099 120.83938645 343.03837486 111.50094721 343.05587578 102.16243362 C343.07059003 94.21225041 343.07124344 86.2622169 343.05380487 78.31203665 C343.04528584 74.25632643 343.04316717 70.20088372 343.05845642 66.14518738 C343.07228696 62.43041725 343.06756185 58.71614421 343.04821718 55.00140296 C343.04267171 53.02526079 343.05674243 51.04909343 343.07157129 49.07299912 C342.99716096 40.10634919 341.38418236 33.58319131 335.18154365 26.71214902 C327.07868577 19.60858356 318.95690758 18.40445202 308.51643372 18.52571106 C307.12669638 18.52021944 305.7369674 18.51210636 304.34725875 18.50162375 C300.55629618 18.48058366 296.76628595 18.49661819 292.97536576 18.51912475 C288.87648656 18.53689063 284.77772653 18.5198985 280.67884827 18.50740051 C272.66106513 18.48846919 264.64364318 18.50158373 256.62588695 18.5259264 C247.28427601 18.55322771 237.94275017 18.54988541 228.60110947 18.54565974 C211.93272946 18.53928676 195.26452065 18.56257813 178.59619141 18.60179138 C162.42914621 18.63981521 146.26230156 18.65396087 130.09521484 18.64280701 C112.47733376 18.63068813 94.85954075 18.63105016 77.24166697 18.65377867 C75.36281407 18.65619319 73.48396117 18.65860517 71.60510826 18.66101456 C70.68073777 18.66222163 69.75636728 18.66342871 68.80398557 18.66467237 C62.29488437 18.67242572 55.785816 18.67164543 49.27671242 18.66784286 C41.34492524 18.66359632 33.41331353 18.6740674 25.48157576 18.70306997 C21.43597297 18.71754433 17.39062558 18.72572379 13.34500122 18.71658325 C9.63965585 18.70841518 5.93483723 18.71880302 2.22957166 18.7438354 C0.25865897 18.75244082 -1.71230933 18.74152681 -3.68320626 18.72985685 C-13.6259687 18.82817798 -20.24339031 21.05880474 -27.45874023 28.27415466 Z " fill="#FEFCFC" transform="translate(165.458740234375,112.72584533691406)"/>
<path d="M0 0 C1.66721583 0.00084862 3.33443277 0.00036655 5.00164795 -0.00132751 C9.47799079 -0.00217972 13.95408689 0.01531872 18.43037295 0.03639436 C23.12683241 0.05529209 27.82329904 0.05692183 32.51979065 0.06047058 C41.3910448 0.0697529 50.26218654 0.09431443 59.13339144 0.12451905 C69.24235814 0.15818256 79.35133053 0.17457897 89.46033943 0.18960536 C110.23478516 0.22086789 131.00907704 0.27583161 151.78344727 0.34057617 C151.78344727 12.88057617 151.78344727 25.42057617 151.78344727 38.34057617 C146.75707031 38.34992188 141.73069336 38.35926758 136.55200195 38.36889648 C119.93184468 38.40268641 103.31181072 38.45804673 86.69175339 38.52447891 C76.61652116 38.56422555 66.54136654 38.59664024 56.46606445 38.61157227 C47.68063571 38.62461149 38.89537805 38.65163398 30.11004567 38.69518924 C25.46168778 38.71775306 20.8135405 38.73348991 16.16512299 38.73246002 C11.78194763 38.7317104 7.39923697 38.7497817 3.01618195 38.781744 C1.41513695 38.79020103 -0.18596043 38.79202174 -1.78701782 38.78637886 C-16.87913856 38.74030859 -29.68721812 41.85580324 -41.24780273 52.14916992 C-49.49875014 60.8524719 -54.44140225 72.6112094 -54.49502563 84.56028748 C-54.50081804 85.25230525 -54.50661044 85.94432302 -54.51257837 86.65731102 C-54.52947349 88.95729867 -54.53244572 91.2570844 -54.53540039 93.55712891 C-54.54470583 95.21331773 -54.55487542 96.86950188 -54.56584167 98.52568054 C-54.59308634 103.00858426 -54.60827466 107.49145664 -54.6212697 111.97442126 C-54.63692448 116.66430415 -54.66370722 121.35412329 -54.68930054 126.04396057 C-54.73604678 134.91894483 -54.772811 143.79394114 -54.80597341 152.66898543 C-54.84422416 162.77540363 -54.89362659 172.88175773 -54.94395757 182.98812187 C-55.04721566 203.77223183 -55.13502394 224.55636883 -55.21655273 245.34057617 C-67.75655273 245.34057617 -80.29655273 245.34057617 -93.21655273 245.34057617 C-93.28441832 223.56477082 -93.33962081 201.78905184 -93.37198925 180.01316738 C-93.38742165 169.90099219 -93.40844138 159.78888764 -93.44287109 149.67675781 C-93.47288497 140.85732903 -93.49215406 132.03795145 -93.49881822 123.21847302 C-93.50271027 118.55379682 -93.51178049 113.88926701 -93.5337429 109.22463799 C-93.554298 104.82271661 -93.56034863 100.42100016 -93.55587578 96.01903534 C-93.55669256 94.41437982 -93.56254385 92.80971653 -93.57416916 91.20510292 C-93.75159134 65.42361772 -86.22635542 44.19408133 -68.21655273 25.34057617 C-67.67643555 24.72569336 -67.13631836 24.11081055 -66.57983398 23.47729492 C-49.58471495 4.85543906 -24.03738869 -0.17414909 0 0 Z " fill="#17BCE1" transform="translate(168.216552734375,74.659423828125)"/>
</svg>
